<?xml version="1.0" standalone="no"?>
<!DOCTYPE svg PUBLIC "-//W3C//DTD SVG 20010904//EN"
 "http://www.w3.org/TR/2001/REC-SVG-20010904/DTD/svg10.dtd">
<svg version="1.0" xmlns="http://www.w3.org/2000/svg"
 width="700.000000pt" height="700.000000pt" viewBox="0 0 700.000000 700.000000"
 preserveAspectRatio="xMidYMid meet">
<metadata>
Created by potrace 1.11, written by Peter Selinger 2001-2013
</metadata>
<g transform="translate(0.000000,700.000000) scale(0.100000,-0.100000)"
fill="#000000" stroke="none">
<path d="M952 6985 c-101 -22 -218 -85 -299 -160 -117 -108 -182 -230 -209
-391 -9 -51 -9 -5993 0 -6062 14 -116 102 -246 207 -309 111 -66 -105 -62
2849 -62 2912 -1 2718 -4 2830 51 105 53 208 195 226 313 4 28 7 1296 7 2820
l0 2770 -21 42 c-42 81 -96 116 -198 128 -32 3 -72 12 -89 20 -42 17 -102 79
-114 119 -50 153 42 283 212 300 91 9 146 46 186 124 53 105 6 238 -104 292
-39 19 -84 19 -2730 19 -2241 -1 -2701 -3 -2753 -14z m798 -636 c0 -165 -3
-218 -12 -221 -7 -2 -166 -3 -353 -3 -375 2 -381 3 -444 66 -43 42 -63 91 -63
149 1 55 4 66 25 107 30 56 88 99 150 112 15 3 179 6 362 6 l335 0 0 -216z
m3962 212 c16 -1 16 -4 1 -43 -21 -58 -27 -247 -9 -313 8 -27 16 -56 17 -64 4
-13 -151 -15 -1109 -15 l-1112 -1 0 217 0 217 23 3 c18 2 2135 2 2189 -1z
m-2651 -8 c2 -31 3 -1993 1 -1993 -1 0 -94 91 -205 203 -111 111 -210 208
-219 215 -14 11 -44 -16 -232 -204 l-216 -216 0 64 c-1 76 -1 1884 0 1916 l0
22 435 0 c239 0 435 -3 436 -7z m-2062 -857 c14 -2 189 -5 389 -5 l362 -1 0
-1090 c0 -600 2 -1090 4 -1090 3 0 198 194 435 430 236 237 432 430 436 430 3
0 199 -193 435 -430 236 -236 432 -430 435 -430 3 0 5 490 5 1090 l0 1089
1310 1 c721 0 1311 -3 1311 -7 1 -5 2 -1186 3 -2625 l1 -2618 -50 -1 c-66 0
-5154 0 -5180 0 -20 1 -20 8 -20 2644 l0 2643 49 -13 c27 -7 61 -15 75 -17z"/>
</g>
</svg>
